<?xml version="1.0" encoding="UTF-8" standalone="no"?>
<!-- Created with Inkscape (http://www.inkscape.org/) -->

<svg
   xmlns:dc="http://purl.org/dc/elements/1.1/"
   xmlns:cc="http://creativecommons.org/ns#"
   xmlns:rdf="http://www.w3.org/1999/02/22-rdf-syntax-ns#"
   xmlns:svg="http://www.w3.org/2000/svg"
   xmlns="http://www.w3.org/2000/svg"
   xmlns:sodipodi="http://sodipodi.sourceforge.net/DTD/sodipodi-0.dtd"
   xmlns:inkscape="http://www.inkscape.org/namespaces/inkscape"
   version="1.0"
   width="95"
   height="95"
   id="Yes_check"
   inkscape:version="0.92.2 2405546, 2018-03-11"
   sodipodi:docname="ic_received_indicator.svg">
  <metadata
     id="metadata10">
    <rdf:RDF>
      <cc:Work
         rdf:about="">
        <dc:format>image/svg+xml</dc:format>
        <dc:type
           rdf:resource="http://purl.org/dc/dcmitype/StillImage" />
        <dc:title />
      </cc:Work>
    </rdf:RDF>
  </metadata>
  <sodipodi:namedview
     pagecolor="#ffffff"
     bordercolor="#666666"
     borderopacity="1"
     objecttolerance="10"
     gridtolerance="10"
     guidetolerance="10"
     inkscape:pageopacity="0"
     inkscape:pageshadow="2"
     inkscape:window-width="956"
     inkscape:window-height="704"
     id="namedview8"
     showgrid="false"
     showguides="true"
     inkscape:guide-bbox="true"
     inkscape:zoom="5.04"
     inkscape:cx="33.639456"
     inkscape:cy="37.489149"
     inkscape:window-x="25"
     inkscape:window-y="65"
     inkscape:window-maximized="0"
     inkscape:current-layer="Yes_check"
     fit-margin-top="0"
     fit-margin-left="0"
     fit-margin-right="0"
     fit-margin-bottom="0" />
  <defs
     id="defs1373">
    <linearGradient
       id="linearGradient2250">
      <stop
         style="stop-color:#008700;stop-opacity:1"
         offset="0"
         id="stop2252" />
      <stop
         style="stop-color:#006f00;stop-opacity:1"
         offset="1"
         id="stop2254" />
    </linearGradient>
  </defs>
  <path
     d="m 2.3894499,61.412131 c 0,0 16.7473651,20.271938 22.3528491,26.154483 3.648598,3.026816 12.878061,3.83429 14.880462,0 1.64903,-2.636163 2.380404,-5.8348 2.991819,-7.931771 C 49.920898,54.575958 72.297563,22.337321 92.321082,10.50894 96.814837,5.2377522 86.327596,3.5063483 77.217442,6.9958109 63.487006,12.254946 34.107717,59.529917 29.270873,69.192545 22.40265,70.841418 12.518762,52.447046 12.518762,52.447046 7.3805037,52.552428 1.8841059,52.071763 2.3894499,61.412131 z"
     style="fill:#259b24;fill-opacity:1;fill-rule:evenodd;stroke:none;stroke-width:0.29981154;stroke-linecap:butt;stroke-linejoin:miter;stroke-miterlimit:4;stroke-opacity:1;stroke-dasharray:none"
     id="check"
     inkscape:connector-curvature="0"
     sodipodi:nodetypes="cccscsccc" />
  <path
     style="fill:#2c5aa0;stroke-width:0.1984127"
     d="M 30.847944,89.882442 C 28.466672,89.509184 26.109553,88.555496 24.862855,87.460879 22.694736,85.557246 2.67895,61.930617 2.4451295,60.999002 2.2182911,60.095206 2.7499507,56.933641 3.3237193,55.774383 4.3788721,53.642522 6.149232,52.816359 10.029711,52.644942 l 2.402161,-0.106113 1.559198,2.604201 c 2.49091,4.160359 5.078101,7.594289 7.723783,10.251634 2.506103,2.517151 3.878293,3.441872 5.719767,3.854554 1.400272,0.313808 1.854796,0.121411 2.439616,-1.032671 C 31.544712,64.920022 38.28747,53.896182 42.944791,46.847299 57.475785,24.85455 69.373049,10.861686 76.425013,7.4698276 c 0.795709,-0.3827205 2.516796,-0.9774375 3.824639,-1.3215934 2.002736,-0.5270151 2.858391,-0.642211 5.423415,-0.730149 2.077075,-0.071209 3.40203,-0.025213 4.166667,0.1446477 2.891527,0.64234 3.973422,2.0152177 3.076912,3.9044713 -0.35725,0.7528488 -0.303702,0.7088398 -3.146238,2.5858238 -11.951077,7.89154 -25.461843,23.562083 -35.719992,41.430045 -5.121077,8.920056 -9.009155,17.807161 -11.631845,26.587302 -1.476871,4.944206 -2.776044,7.766539 -3.974824,8.63493 -0.451886,0.327344 -1.27575,0.733506 -1.830809,0.902584 -1.2528,0.381615 -4.189665,0.521482 -5.764994,0.274553 z"
     id="path12"
     inkscape:connector-curvature="0" />
</svg>
